<svg xmlns="http://www.w3.org/2000/svg" width="20" height="20" viewBox="0 0 20 20">
  <path d="M3.53 11.349a.599.599 0 0 1 .848-.012c.23.23.225.61-.013.847l-1.289 1.289a.599.599 0 0 1-.847.012.599.599 0 0 1 .013-.847l1.289-1.289zM2.4 7.309c.336 0 .608.264.608.59 0 .326-.272.59-.608.59H.577A.599.599 0 0 1-.03 7.9c0-.326.272-.59.607-.59H2.4zm1.965-3.694a.599.599 0 0 1 .013.847.599.599 0 0 1-.847-.012L2.24 3.16a.599.599 0 0 1-.012-.846.6.6 0 0 1 .847.012l1.29 1.29zm3.91-1.184a.599.599 0 0 1-.59.607.599.599 0 0 1-.59-.607V.608c0-.336.264-.608.59-.608.326 0 .59.272.59.608V2.43zm3.563 2.019a.599.599 0 0 1-.846.012.599.599 0 0 1 .012-.847l1.289-1.289a.599.599 0 0 1 .847-.012c.23.23.225.61-.013.847L11.838 4.45zm-5.017 6.88c-1.483-.393-2.578-1.78-2.578-3.43 0-1.957 1.54-3.544 3.442-3.544 1.397 0 2.6.857 3.14 2.09a3.673 3.673 0 0 0-1.466 3.179 3.535 3.535 0 0 0-2.538 1.707zM20 12.502c0 1.728-1.331 3.159-3.084 3.364l-7.161-.002c-1.363-.039-2.471-1.216-2.471-2.63 0-1.453 1.144-2.63 2.554-2.63.094 0 .14 0 .192.004a.622.622 0 0 1 .149.025l.442.152-.128-.461c-.107-.386-.158-.656-.158-.92 0-1.453 1.144-2.631 2.555-2.631 1.307 0 2.396 1.074 2.513 2.437l.028.32.295-.102a3.274 3.274 0 0 1 1.093-.202c1.76 0 3.181 1.451 3.181 3.276zm-8.443 4.9c.048-.275.333-.455.635-.402.302.054.508.32.46.595l-.353 1.995c-.048.276-.332.456-.635.402-.302-.053-.507-.32-.459-.595l.352-1.994zm2.901-.267c.049-.275.333-.455.635-.402.302.053.508.32.46.595l-.352 1.995c-.049.275-.333.455-.635.402-.303-.053-.508-.32-.46-.595l.352-1.995z"/>
</svg>
