<?xml version="1.0" encoding="UTF-8"?>
<svg width="48px" height="48px" viewBox="0 0 48 48" version="1.1" xmlns="http://www.w3.org/2000/svg" xmlns:xlink="http://www.w3.org/1999/xlink">
    <!-- Generator: Sketch 61 (89581) - https://sketch.com -->
    <title>codecanyon/logo</title>
    <desc>Created with Sketch.</desc>
    <defs>
        <path d="M0,24 C0,19.7169231 1.12615385,15.7015385 3.09230769,12.2123077 C3.91384615,11.1323077 5.36307692,11.9815385 4.56923077,13.4676923 C2.87076923,16.6061538 1.90153846,20.1969231 1.90153846,24 C1.90153846,36.2030769 11.7969231,46.0984615 24,46.0984615 C36.2030769,46.0984615 46.0984615,36.2030769 46.0984615,24 C46.0984615,11.7969231 36.2030769,1.90153846 24,1.90153846 C19.9846154,1.90153846 16.2184615,2.97230769 12.9692308,4.84615385 C11.3169231,5.76923077 10.6707692,4.05230769 11.6769231,3.39692308 C15.2861538,1.24615385 19.4953846,0 24,0 C37.2553846,0 48,10.7446154 48,24 C48,37.2553846 37.2553846,48 24,48 C10.7446154,48 0,37.2553846 0,24 Z M27.0382448,33.1362827 C27.4022238,33.200462 27.6450077,33.5489808 27.5805178,33.9147211 L27.1134407,36.563647 C27.0489508,36.9293874 26.7016081,37.1738509 26.3376292,37.1096716 C25.9736502,37.0454923 25.7308664,36.6969735 25.7953562,36.3312332 L26.2624334,33.6823073 C26.3269232,33.3165669 26.6742659,33.0721034 27.0382448,33.1362827 Z M30.986578,32.7814144 C31.3505569,32.8455937 31.5933408,33.1941125 31.5288509,33.5598528 L31.0617738,36.2087787 C30.9972839,36.5745191 30.6499413,36.8189826 30.2859623,36.7548033 C29.9219833,36.690624 29.6791995,36.3421052 29.7436894,35.9763649 L30.2107665,33.3274389 C30.2752564,32.9616986 30.622599,32.7172351 30.986578,32.7814144 Z M28.0832378,19.5539849 C29.8006867,19.5539849 31.2425983,20.8842427 31.4830659,22.6052637 L31.5041908,22.7911113 L31.5414249,23.2151396 L31.9433115,23.0805291 C32.4820604,22.9000771 32.9454065,22.8119929 33.4302177,22.8119929 C35.8255387,22.8119929 37.76,24.7394808 37.76,27.162728 C37.76,29.3858051 36.0600221,31.238402 33.7850061,31.5996618 L33.5630859,31.6299292 L23.8170304,31.6277792 C21.9620301,31.5758723 20.4542551,30.0124475 20.4542551,28.1344146 C20.4542551,26.2052585 22.0109306,24.64105 23.9307959,24.64105 C24.0580822,24.64105 24.1197067,24.6421967 24.1913702,24.6473403 C24.248997,24.6514764 24.2985784,24.6579417 24.3393523,24.6665226 L24.3938123,24.6809541 L24.9956287,24.8825303 L24.8213538,24.2696165 C24.6756529,23.7571955 24.606697,23.3991993 24.606697,23.0473495 C24.606697,21.1181934 26.1633724,19.5539849 28.0832378,19.5539849 Z M16.4637889,25.6149053 C16.7773998,25.9285161 16.7761695,26.4382101 16.461041,26.7533385 L14.7492692,28.4651103 C14.4341407,28.7802388 13.9244468,28.7814691 13.6108359,28.4678583 C13.2972251,28.1542474 13.2984554,27.6445535 13.6135839,27.329425 L15.3253557,25.6176532 C15.6404841,25.3025247 16.1501781,25.3012944 16.4637889,25.6149053 Z M20.9996605,16.3430482 C22.9023478,16.3430482 24.5400912,17.4828974 25.2734914,19.1201024 C24.0579329,19.998404 23.268279,21.4302857 23.268279,23.0473495 C23.268279,23.1461697 23.2716603,23.2432745 23.2784183,23.340197 C21.816829,23.5391652 20.5634461,24.3972408 19.8244618,25.6067495 C17.8063332,25.0842887 16.3151974,23.242214 16.3151974,21.0501805 C16.3151974,18.4505031 18.412503,16.3430482 20.9996605,16.3430482 Z M13.7780325,20.2471297 C14.2236914,20.2471297 14.5849694,20.6066678 14.5849694,21.0501805 C14.5849694,21.4936932 14.2236914,21.8532313 13.7780325,21.8532313 L11.3572216,21.8532313 C10.9115626,21.8532313 10.5502846,21.4936932 10.5502846,21.0501805 C10.5502846,20.6066678 10.9115626,20.2471297 11.3572216,20.2471297 L13.7780325,20.2471297 Z M14.7492692,13.6352507 L16.461041,15.3470224 C16.7761695,15.6621509 16.7773998,16.1718449 16.4637889,16.4854557 C16.1501781,16.7990666 15.6404841,16.7978363 15.3253557,16.4827078 L13.6135839,14.770936 C13.2984554,14.4558075 13.2972251,13.9461136 13.6108359,13.6325027 C13.9244468,13.3188919 14.4341407,13.3201222 14.7492692,13.6352507 Z M28.388485,13.6325027 C28.7020959,13.9461136 28.7008656,14.4558075 28.3857371,14.770936 L26.6739653,16.4827078 C26.3588368,16.7978363 25.8491429,16.7990666 25.535532,16.4854557 C25.2219212,16.1718449 25.2231515,15.6621509 25.5382799,15.3470224 L27.2500517,13.6352507 C27.5651802,13.3201222 28.0748742,13.3188919 28.388485,13.6325027 Z M20.9996605,10.56 C21.4431732,10.56 21.8027113,10.921278 21.8027113,11.366937 L21.8027113,13.7877478 C21.8027113,14.2334068 21.4431732,14.5946848 20.9996605,14.5946848 C20.5561478,14.5946848 20.1966097,14.2334068 20.1966097,13.7877478 L20.1966097,11.366937 C20.1966097,10.921278 20.5561478,10.56 20.9996605,10.56 Z M0.369627994,1.65517241 C0.434312893,1.65517241 0.498997792,1.67374531 0.554441991,1.70160464 L8.15953797,5.60191192 C8.17801936,5.61119836 8.20574146,5.62977125 8.22422286,5.6390577 L8.25194496,5.65763059 C8.92651605,6.02908843 9.37931034,6.66985319 9.37931034,7.41276886 L9.37931034,10.6537385 C9.37931034,10.8673267 9.21297775,11.0344828 9.00968235,11.0344828 C8.94499745,11.0344828 8.88955325,11.0159099 8.83410905,10.9880505 L7.06913538,10.0965517 C6.34836079,9.77152612 5.8678444,9.13076135 5.8586037,8.40641857 C5.8586037,7.85851827 5.7754374,7.22703995 4.90681162,6.47483783 C3.19728215,4.98900649 0.434312893,2.57453056 0.138610498,2.31451007 C0.129369798,2.30522363 0.129369798,2.30522363 0.110888398,2.29593718 C0.0462034992,2.23093206 0,2.12878115 0,2.02663025 C0,1.82232844 0.166332597,1.65517241 0.369627994,1.65517241 Z" id="path-1"></path>
    </defs>
    <g id="codecanyon/logo" stroke="none" stroke-width="1" fill="none" fill-rule="evenodd">
        <mask id="mask-2" fill="white">
            <use xlink:href="#path-1"></use>
        </mask>
        <use id="Combined-Shape" fill="#FFFFFF" xlink:href="#path-1"></use>
    </g>
</svg>