<svg xmlns="http://www.w3.org/2000/svg" width="18" height="18" viewBox="0 0 18 18">
  <path fill="#ffffff" d="M3.178 10.214a.54.54 0 0 1 .762-.011.54.54 0 0 1-.011.762l-1.16 1.16a.54.54 0 0 1-.763.011.54.54 0 0 1 .012-.762l1.16-1.16zM2.16 6.578a.54.54 0 0 1 .547.531.54.54 0 0 1-.547.531H.52a.54.54 0 0 1-.547-.53.54.54 0 0 1 .547-.532h1.64zm1.77-3.324a.54.54 0 0 1 .01.762.54.54 0 0 1-.761-.011l-1.16-1.16a.54.54 0 0 1-.012-.763.54.54 0 0 1 .763.011l1.16 1.16zm3.518-1.067a.54.54 0 0 1-.53.547.54.54 0 0 1-.532-.547V.547A.54.54 0 0 1 6.916 0a.54.54 0 0 1 .531.547v1.64zm3.208 1.818a.54.54 0 0 1-.763.01.54.54 0 0 1 .012-.761l1.16-1.16a.54.54 0 0 1 .762-.012.54.54 0 0 1-.011.763l-1.16 1.16zM6.14 10.198c-1.335-.355-2.32-1.603-2.32-3.089 0-1.761 1.386-3.19 3.097-3.19 1.258 0 2.34.772 2.826 1.881a3.306 3.306 0 0 0-1.319 2.861 3.181 3.181 0 0 0-2.284 1.537zM18 11.252c0 1.555-1.198 2.843-2.775 3.027l-6.446-.001c-1.226-.035-2.224-1.095-2.224-2.368 0-1.307 1.03-2.367 2.3-2.367.084 0 .125 0 .172.004a.56.56 0 0 1 .134.023l.398.137-.115-.416c-.097-.347-.142-.59-.142-.828 0-1.308 1.029-2.368 2.299-2.368 1.176 0 2.157.967 2.262 2.194l.025.288.265-.092c.357-.122.663-.182.984-.182C16.72 8.303 18 9.61 18 11.252zm-7.599 4.41c.044-.248.3-.41.572-.362.272.048.457.288.413.536l-.317 1.795c-.043.248-.3.41-.571.362-.272-.048-.457-.288-.413-.536l.316-1.795zm2.611-.24c.044-.248.3-.41.572-.362.272.048.457.288.413.535l-.316 1.796c-.044.248-.3.41-.572.362-.272-.048-.457-.288-.413-.536l.316-1.795z"/>
</svg>
